Coordinates
version=1
nRows=5
nColumns=63
inDegrees=yes

Units are S.I. units (second, meters, Newtons, ...)
If the header above contains a line with 'inDegrees', this indicates whether rotational values are in degrees (yes) or radians (no).

endheader
time	pelvis_tilt	pelvis_list	pelvis_rotation	pelvis_tx	pelvis_ty	pelvis_tz	hip_flexion_r	hip_adduction_r	hip_rotation_r	knee_angle_r	knee_angle_r_beta	ankle_angle_r	subtalar_angle_r	mtp_angle_r	hip_flexion_l	hip_adduction_l	hip_rotation_l	knee_angle_l	knee_angle_l_beta	ankle_angle_l	subtalar_angle_l	mtp_angle_l	L5_S1_Flex_Ext	L5_S1_Lat_Bending	L5_S1_axial_rotation	L4_L5_Flex_Ext	L4_L5_Lat_Bending	L4_L5_axial_rotation	L3_L4_Flex_Ext	L3_L4_Lat_Bending	L3_L4_axial_rotation	L2_L3_Flex_Ext	L2_L3_Lat_Bending	L2_L3_axial_rotation	L1_L2_Flex_Ext	L1_L2_Lat_Bending	L1_L2_axial_rotation	L1_T12_Flex_Ext	L1_T12_Lat_Bending	L1_T12_axial_rotation	Abs_r3	Abs_r2	Abs_r1	Abs_t1	Abs_t2	neck_flexion	neck_bending	neck_rotation	arm_flex_r	arm_add_r	arm_rot_r	elbow_flex_r	pro_sup_r	wrist_flex_r	wrist_dev_r	arm_flex_l	arm_add_l	arm_rot_l	elbow_flex_l	pro_sup_l	wrist_flex_l	wrist_dev_l
      8.90000000	     -2.74724025	      0.01184597	     86.03749927	      0.19750119	      0.88867265	      0.70566723	      2.53234421	     -3.61702858	      6.36997108	      8.62475638	      0.15053040	     28.27995206	      5.62375109	      0.00000000	      4.07234841	      3.29979686	      6.21772214	     13.38221495	      0.23356371	     28.08860071	     -8.97329354	      0.00000000	     -0.14198466	     -0.78598209	      1.41885806	     -0.26367971	     -1.04535619	      1.50753669	     -0.23326660	     -1.91103686	      1.50753669	     -0.16227427	     -1.91103686	      1.24150081	     -0.13184695	     -1.60277469	      1.15282218	     -0.08113003	     -1.21748626	      1.06414355	     -1.01418222	     -8.89118665	      7.89126290	      0.00000000	      0.00000000	     20.63185720	     10.16596136	    -14.68171793	     51.25194620	    -41.25884942	     -3.23559279	    118.75949851	     85.82612160	      9.40236503	     15.83363548	     53.56622578	     -3.41165614	     28.33356580	     92.11391473	     88.56593240	    -23.82796325	    -13.44638742
      8.91666667	     -2.75823050	      0.19962224	     85.99485713	      0.19771731	      0.88932082	      0.70605639	      2.17146700	     -3.57635997	      7.60190929	      8.31841934	      0.14518381	     27.72461641	      3.92707176	      0.00000000	      3.85159456	      3.34601015	      6.15153522	     13.26855373	      0.23157995	     27.90666498	     -9.20749693	      0.00000000	     -0.13576129	     -0.81056861	      1.61369526	     -0.25212228	     -1.07805625	      1.71455121	     -0.22304222	     -1.97081652	      1.71455121	     -0.15516157	     -1.97081652	      1.41198335	     -0.12606793	     -1.65291151	      1.31112740	     -0.07757400	     -1.25557078	      1.21027144	     -0.96972929	     -9.16931425	      8.97488893	      0.00000000	      0.00000000	     21.12285740	     10.61209229	    -16.58690575	     53.87858663	    -43.45732107	     -2.12375247	    117.88478427	     86.75013655	      7.51396362	     13.11015556	     56.83672251	     -2.66904507	     27.56966683	     90.86380525	     88.44511432	    -22.89238426	    -17.80032388
      8.93333333	     -2.65859192	      0.52015725	     86.02322869	      0.19748376	      0.89000403	      0.70664656	      1.71948237	     -3.50428547	      7.91508008	      8.10482996	      0.14145597	     27.41737538	      3.42067117	      0.00000000	      3.55088854	      3.29484420	      6.04989449	     13.28788730	      0.23191738	     27.83133087	     -9.26726836	      0.00000000	     -0.16509703	     -0.81609187	      1.73212140	     -0.30660169	     -1.08540218	      1.84037899	     -0.27123791	     -1.98424576	      1.84037899	     -0.18868940	     -1.98424576	      1.51560622	     -0.15330910	     -1.66417453	      1.40734864	     -0.09433644	     -1.26412630	      1.29909105	     -1.17927157	     -9.23179440	      9.63353958	      0.00000000	      0.00000000	     21.66432674	     11.26092855	    -17.98359255	     57.04928775	    -45.25791833	     -1.06084357	    117.05109097	     86.73188163	      6.81959926	     11.87212292	     60.12986802	     -2.08311627	     26.58586945	     89.67028146	     88.49072946	    -21.14071779	    -20.42385872
      8.95000000	     -2.55094709	      0.88219089	     86.13005334	      0.19710831	      0.89077271	      0.70746578	      1.26972070	     -3.43393369	      7.98553080	      7.95099076	      0.13877097	     27.18188884	      3.13274771	      0.00000000	      3.25720033	      3.23421838	      5.98802663	     13.40565082	      0.23397275	     27.75897844	     -9.24779755	      0.00000000	     -0.21637749	     -0.81839002	      1.78077826	     -0.40183464	     -1.08845873	      1.89207690	     -0.35548658	     -1.98983350	      1.89207690	     -0.24729784	     -1.98983350	      1.55818098	     -0.20092814	     -1.66886094	      1.44688234	     -0.12363810	     -1.26768615	      1.33558370	     -1.54556278	     -9.25779163	      9.90415446	      0.00000000	      0.00000000	     21.99214409	     12.28080347	    -19.07886650	     60.08036923	    -46.59655354	     -0.44911786	    116.65846963	     86.26355243	      6.14226085	     11.05804097	     63.59151387	     -1.73078809	     25.93460535	     88.48082169	     88.59409860	    -19.89769623	    -21.72034402
      8.96666667	     -2.34703864	      1.12942875	     86.22512251	      0.19654900	      0.89152506	      0.70786238	      0.91326966	     -3.25902662	      8.01315789	      7.76522998	      0.13552883	     26.91730436	      2.87659411	      0.00000000	      3.06454058	      3.06343952	      5.89676592	     13.57106041	      0.23685969	     27.81727386	     -9.09617430	      0.00000000	     -0.24394806	     -0.79830766	      1.82556634	     -0.45303594	     -1.06174919	      1.93966424	     -0.40078226	     -1.94100525	      1.93966424	     -0.27880823	     -1.94100525	      1.59737055	     -0.22653017	     -1.62790899	      1.48327265	     -0.13939192	     -1.23657857	      1.36917476	     -1.74249658	     -9.03061596	     10.15325232	      0.00000000	      0.00000000	     21.27854090	     13.18333746	    -20.07693394	     62.55301519	    -47.92968867	     -0.27081008	    116.95208215	     84.59780920	      4.72862617	     10.33109675	     66.89956668	     -1.31044088	     25.49151327	     87.19851418	     88.70540481	    -18.64049327	    -22.26968250
